<svg width="179" height="94" viewBox="0 0 179 94" fill="none" xmlns="http://www.w3.org/2000/svg">
<path d="M179 0H0V93.5884H179V0Z" fill="url(#paint0_linear_2_4529)"/>
<path d="M179 0H0V93.5884H179V0Z" fill="#E51A4B"/>
<path fill-rule="evenodd" clip-rule="evenodd" d="M15.8086 77.3003H163.723V18.9551H15.8086V77.3003V77.3003ZM127.011 26.9634H156.594V58.7118L127.011 26.9634ZM109.048 26.9634H114.596V69.5758H109.048V26.9634V26.9634ZM100.333 26.9634H108.519L69.4261 69.5758H61.2396L100.333 26.9634V26.9634ZM58.8634 26.9634H88.1799L73.3879 42.6953L58.8634 26.9634ZM22.9416 26.9634H46.7106L51.9969 32.6815H22.9425V26.9634H22.9416V26.9634ZM123.311 36.1153L134.669 48.4134L123.311 60.9952V36.1153V36.1153ZM43.805 42.123H60.7111L67.3165 49.2694L48.8248 69.5758H43.8059V42.123H43.805V42.123ZM22.9416 42.123H35.0908V69.5758H22.9416V42.123V42.123ZM100.333 48.9866V69.5758H81.5799L100.333 48.9866V48.9866ZM141.007 55.2771L153.951 69.5758H127.801L141.007 55.2771Z" fill="white"/>
<defs>
<linearGradient id="paint0_linear_2_4529" x1="0" y1="46.3266" x2="178.414" y2="46.3266" gradientUnits="userSpaceOnUse">
<stop stop-color="#353060"/>
<stop offset="0.4" stop-color="#8E2B84"/>
<stop offset="0.729412" stop-color="#E73A3A"/>
<stop offset="1" stop-color="#F59D0E"/>
</linearGradient>
</defs>
</svg>
