<svg width="21" height="21" viewBox="0 0 21 21" fill="none" xmlns="http://www.w3.org/2000/svg">
<path fill-rule="evenodd" clip-rule="evenodd" d="M3.25719 8.76374C3.25719 10.3994 3.81823 11.598 4.72453 12.7652L5.50598 13.5463C5.66531 13.6701 5.788 13.7697 5.94651 13.887C6.57514 14.3511 7.35089 14.6481 8.11632 14.8421L9.50739 15.0161C9.69305 15.0161 9.68328 14.983 9.85889 14.9746C11.7472 14.8828 13.5805 13.8951 14.6246 12.3184C16.1257 10.0517 16.1257 7.47554 14.6246 5.20883C14.2626 4.66217 13.6087 4.0083 13.062 3.64621C12.0857 2.99967 11.064 2.58384 9.85781 2.55371C9.66591 2.54882 9.67215 2.51326 9.50739 2.51326C9.34236 2.51326 9.34861 2.54882 9.1567 2.55371C8.4024 2.57271 7.60467 2.76434 6.94184 3.07322C6.15443 3.44047 5.25247 4.08267 4.72453 4.76233C4.60076 4.92166 4.50115 5.04434 4.38389 5.20286C3.71373 6.11079 3.25719 7.51299 3.25719 8.76374ZM18.2572 8.6074C18.2572 9.93848 18.1074 10.6901 17.7255 11.7866C17.2638 13.112 16.8623 13.3859 16.5385 13.998L19.8687 17.3477C20.4112 17.8903 20.7573 18.054 20.7573 18.8807C20.7573 19.423 20.1667 20.0137 19.6244 20.0137C18.8923 20.0137 18.6915 19.7664 18.0718 19.1446L14.7025 15.8339C14.5622 15.8714 12.5653 17.5135 9.74164 17.5135C8.25909 17.5135 6.98717 17.2934 5.84825 16.7193C4.57253 16.0763 4.35566 15.8871 3.32532 14.9846L2.59843 14.1489C2.51564 14.0376 2.44643 13.951 2.36663 13.834C1.43671 12.4717 0.757324 10.8421 0.757324 9.03707C0.757324 7.50621 0.956282 6.28858 1.56455 5.07881C1.80504 4.60056 1.82947 4.51641 2.11691 4.06855L3.30523 2.56158L4.76389 1.40312C6.42314 0.390959 7.72003 0.0136719 9.74164 0.0136719C10.9395 0.0136719 12.3856 0.413759 13.1923 0.820631C14.0324 1.24406 14.4477 1.48618 15.1444 2.07192C15.3694 2.26111 15.5041 2.39709 15.7085 2.60148C17.2621 4.15541 18.2572 6.30649 18.2572 8.6074Z" fill="#D2364C"/>
</svg>
